<svg width="139" height="42" viewBox="0 0 139 42" fill="none" xmlns="http://www.w3.org/2000/svg">
<path d="M10.6631 24.8047C10.3412 25.6356 9.14921 25.6265 8.86181 24.7795L6.72288 18.8108C6.34278 17.7227 6.77938 16.275 7.66865 15.5625L14.243 10.4367C15.0163 9.83217 16.082 10.6327 15.7411 11.5395L10.6631 24.8047Z" fill="#155DFC"/>
<path d="M35.7778 19.1237L33.4343 25.0408C33.1073 25.8638 31.9266 25.8461 31.6332 25.0046L26.9466 11.4679C26.6367 10.5499 27.729 9.78615 28.4813 10.4166L34.9568 15.8341C35.8077 16.5874 36.1947 18.0492 35.7778 19.1237Z" fill="#155DFC"/>
<path d="M12.1275 29.1856C11.7075 28.6606 11.5849 27.9606 11.8124 27.3306L20.1075 4.14314C20.405 3.28564 21.6125 3.28564 21.91 4.14314L30.205 27.3131C30.4325 27.9431 30.31 28.6431 29.89 29.1681L23.205 37.3931C21.9975 38.8456 20.0025 38.8456 18.7775 37.3931L12.1275 29.1856Z" fill="#155DFC"/>
<path d="M55.232 32.32C53.44 32.32 51.8933 32 50.592 31.36C49.312 30.72 48.32 29.7493 47.616 28.448C46.9333 27.1253 46.592 25.4293 46.592 23.36V10.368C46.592 10.1333 46.656 9.952 46.784 9.824C46.912 9.67467 47.0933 9.6 47.328 9.6H48.96C49.1947 9.6 49.376 9.67467 49.504 9.824C49.6533 9.952 49.728 10.1333 49.728 10.368V23.424C49.728 25.5147 50.2187 27.0613 51.2 28.064C52.1813 29.0667 53.5253 29.568 55.232 29.568C56.9173 29.568 58.2507 29.0667 59.232 28.064C60.2347 27.0613 60.736 25.5147 60.736 23.424V10.368C60.736 10.1333 60.8 9.952 60.928 9.824C61.0773 9.67467 61.2587 9.6 61.472 9.6H63.136C63.3493 9.6 63.52 9.67467 63.648 9.824C63.7973 9.952 63.872 10.1333 63.872 10.368V23.36C63.872 25.4293 63.52 27.1253 62.816 28.448C62.1333 29.7493 61.152 30.72 59.872 31.36C58.592 32 57.0453 32.32 55.232 32.32ZM74.4405 32.32C73.2458 32.32 72.2218 32.1707 71.3685 31.872C70.5152 31.5733 69.8218 31.2107 69.2885 30.784C68.7552 30.3573 68.3498 29.9307 68.0725 29.504C67.8165 29.0773 67.6778 28.736 67.6565 28.48C67.6352 28.2453 67.7098 28.064 67.8805 27.936C68.0512 27.808 68.2218 27.744 68.3925 27.744H69.8005C69.9285 27.744 70.0245 27.7653 70.0885 27.808C70.1738 27.8293 70.2805 27.9147 70.4085 28.064C70.6858 28.3627 70.9952 28.6613 71.3365 28.96C71.6778 29.2587 72.0938 29.504 72.5845 29.696C73.0965 29.888 73.7258 29.984 74.4725 29.984C75.5605 29.984 76.4565 29.7813 77.1605 29.376C77.8645 28.9493 78.2165 28.3307 78.2165 27.52C78.2165 26.9867 78.0672 26.56 77.7685 26.24C77.4912 25.92 76.9792 25.632 76.2325 25.376C75.5072 25.12 74.5045 24.8533 73.2245 24.576C71.9445 24.2773 70.9312 23.9147 70.1845 23.488C69.4378 23.04 68.9045 22.5173 68.5845 21.92C68.2645 21.3013 68.1045 20.608 68.1045 19.84C68.1045 19.0507 68.3392 18.2933 68.8085 17.568C69.2778 16.8213 69.9605 16.2133 70.8565 15.744C71.7738 15.2747 72.9152 15.04 74.2805 15.04C75.3898 15.04 76.3392 15.1787 77.1285 15.456C77.9178 15.7333 78.5685 16.0853 79.0805 16.512C79.5925 16.9173 79.9765 17.3227 80.2325 17.728C80.4885 18.1333 80.6272 18.4747 80.6485 18.752C80.6698 18.9653 80.6058 19.1467 80.4565 19.296C80.3072 19.424 80.1365 19.488 79.9445 19.488H78.6005C78.4512 19.488 78.3232 19.456 78.2165 19.392C78.1312 19.328 78.0458 19.2533 77.9605 19.168C77.7472 18.8907 77.4912 18.6133 77.1925 18.336C76.9152 18.0587 76.5418 17.8347 76.0725 17.664C75.6245 17.472 75.0272 17.376 74.2805 17.376C73.2138 17.376 72.4138 17.6 71.8805 18.048C71.3472 18.496 71.0805 19.0613 71.0805 19.744C71.0805 20.1493 71.1978 20.512 71.4325 20.832C71.6672 21.152 72.1152 21.44 72.7765 21.696C73.4378 21.952 74.4192 22.2293 75.7205 22.528C77.1285 22.8053 78.2378 23.1787 79.0485 23.648C79.8592 24.1173 80.4352 24.6613 80.7765 25.28C81.1178 25.8987 81.2885 26.6133 81.2885 27.424C81.2885 28.32 81.0218 29.1413 80.4885 29.888C79.9765 30.6347 79.2085 31.232 78.1845 31.68C77.1818 32.1067 75.9338 32.32 74.4405 32.32ZM91.617 32.32C89.4197 32.32 87.6703 31.648 86.369 30.304C85.0677 28.9387 84.353 27.0827 84.225 24.736C84.2037 24.4587 84.193 24.1067 84.193 23.68C84.193 23.232 84.2037 22.8693 84.225 22.592C84.3103 21.0773 84.6623 19.7547 85.281 18.624C85.8997 17.472 86.7423 16.5867 87.809 15.968C88.897 15.3493 90.1663 15.04 91.617 15.04C93.2383 15.04 94.593 15.3813 95.681 16.064C96.7903 16.7467 97.633 17.7173 98.209 18.976C98.785 20.2347 99.073 21.7067 99.073 23.392V23.936C99.073 24.1707 98.9983 24.352 98.849 24.48C98.721 24.608 98.5503 24.672 98.337 24.672H87.265C87.265 24.6933 87.265 24.736 87.265 24.8C87.265 24.864 87.265 24.9173 87.265 24.96C87.3077 25.8347 87.4997 26.656 87.841 27.424C88.1823 28.1707 88.673 28.7787 89.313 29.248C89.953 29.7173 90.721 29.952 91.617 29.952C92.385 29.952 93.025 29.8347 93.537 29.6C94.049 29.3653 94.465 29.1093 94.785 28.832C95.105 28.5333 95.3183 28.3093 95.425 28.16C95.617 27.8827 95.7663 27.7227 95.873 27.68C95.9797 27.616 96.1503 27.584 96.385 27.584H97.921C98.1343 27.584 98.305 27.648 98.433 27.776C98.5823 27.8827 98.6463 28.0427 98.625 28.256C98.6037 28.576 98.433 28.9707 98.113 29.44C97.793 29.888 97.3343 30.336 96.737 30.784C96.1397 31.232 95.4143 31.6053 94.561 31.904C93.7077 32.1813 92.7263 32.32 91.617 32.32ZM87.265 22.464H96.033V22.368C96.033 21.408 95.8517 20.5547 95.489 19.808C95.1477 19.0613 94.6463 18.4747 93.985 18.048C93.3237 17.6 92.5343 17.376 91.617 17.376C90.6997 17.376 89.9103 17.6 89.249 18.048C88.609 18.4747 88.1183 19.0613 87.777 19.808C87.4357 20.5547 87.265 21.408 87.265 22.368V22.464ZM103.635 32C103.422 32 103.241 31.936 103.091 31.808C102.963 31.6587 102.899 31.4773 102.899 31.264V16.128C102.899 15.9147 102.963 15.7333 103.091 15.584C103.241 15.4347 103.422 15.36 103.635 15.36H105.107C105.321 15.36 105.502 15.4347 105.651 15.584C105.801 15.7333 105.875 15.9147 105.875 16.128V17.536C106.302 16.8107 106.889 16.2667 107.635 15.904C108.382 15.5413 109.278 15.36 110.323 15.36H111.603C111.817 15.36 111.987 15.4347 112.115 15.584C112.243 15.712 112.307 15.8827 112.307 16.096V17.408C112.307 17.6213 112.243 17.792 112.115 17.92C111.987 18.048 111.817 18.112 111.603 18.112H109.683C108.531 18.112 107.625 18.4533 106.963 19.136C106.302 19.7973 105.971 20.704 105.971 21.856V31.264C105.971 31.4773 105.897 31.6587 105.747 31.808C105.598 31.936 105.417 32 105.203 32H103.635ZM115.824 32C115.61 32 115.429 31.936 115.28 31.808C115.152 31.6587 115.088 31.4773 115.088 31.264V10.016C115.088 9.80267 115.152 9.632 115.28 9.504C115.429 9.35467 115.61 9.28 115.824 9.28H117.328C117.562 9.28 117.744 9.35467 117.872 9.504C118 9.632 118.064 9.80267 118.064 10.016V31.264C118.064 31.4773 118 31.6587 117.872 31.808C117.744 31.936 117.562 32 117.328 32H115.824ZM125.749 38.08C125.578 38.08 125.429 38.016 125.301 37.888C125.173 37.76 125.109 37.6107 125.109 37.44C125.109 37.3547 125.119 37.2693 125.141 37.184C125.162 37.0987 125.205 36.992 125.269 36.864L127.733 31.008L121.621 16.576C121.514 16.32 121.461 16.1387 121.461 16.032C121.461 15.84 121.525 15.68 121.653 15.552C121.781 15.424 121.941 15.36 122.133 15.36H123.701C123.914 15.36 124.085 15.4133 124.213 15.52C124.341 15.6267 124.426 15.7547 124.469 15.904L129.333 27.552L134.325 15.904C134.389 15.7547 134.474 15.6267 134.581 15.52C134.709 15.4133 134.89 15.36 135.125 15.36H136.629C136.821 15.36 136.981 15.424 137.109 15.552C137.237 15.68 137.301 15.8293 137.301 16C137.301 16.1067 137.247 16.2987 137.141 16.576L128.053 37.536C127.989 37.6853 127.893 37.8133 127.765 37.92C127.658 38.0267 127.487 38.08 127.253 38.08H125.749Z" fill="#1F2933"/>
</svg>
